%TF.GenerationSoftware,KiCad,Pcbnew,(5.99.0-10520-g1b9a8564af)*%
%TF.CreationDate,2021-07-21T11:30:59-07:00*%
%TF.ProjectId,cfc_emulator,6366635f-656d-4756-9c61-746f722e6b69,rev?*%
%TF.SameCoordinates,Original*%
%TF.FileFunction,Paste,Top*%
%TF.FilePolarity,Positive*%
%FSLAX46Y46*%
G04 Gerber Fmt 4.6, Leading zero omitted, Abs format (unit mm)*
G04 Created by KiCad (PCBNEW (5.99.0-10520-g1b9a8564af)) date 2021-07-21 11:30:59*
%MOMM*%
%LPD*%
G01*
G04 APERTURE LIST*
G04 Aperture macros list*
%AMRoundRect*
0 Rectangle with rounded corners*
0 $1 Rounding radius*
0 $2 $3 $4 $5 $6 $7 $8 $9 X,Y pos of 4 corners*
0 Add a 4 corners polygon primitive as box body*
4,1,4,$2,$3,$4,$5,$6,$7,$8,$9,$2,$3,0*
0 Add four circle primitives for the rounded corners*
1,1,$1+$1,$2,$3*
1,1,$1+$1,$4,$5*
1,1,$1+$1,$6,$7*
1,1,$1+$1,$8,$9*
0 Add four rect primitives between the rounded corners*
20,1,$1+$1,$2,$3,$4,$5,0*
20,1,$1+$1,$4,$5,$6,$7,0*
20,1,$1+$1,$6,$7,$8,$9,0*
20,1,$1+$1,$8,$9,$2,$3,0*%
G04 Aperture macros list end*
%ADD10RoundRect,0.155000X-0.155000X0.212500X-0.155000X-0.212500X0.155000X-0.212500X0.155000X0.212500X0*%
%ADD11RoundRect,0.155000X0.155000X-0.212500X0.155000X0.212500X-0.155000X0.212500X-0.155000X-0.212500X0*%
%ADD12RoundRect,0.250000X-0.475000X0.337500X-0.475000X-0.337500X0.475000X-0.337500X0.475000X0.337500X0*%
%ADD13RoundRect,0.237500X0.300000X0.237500X-0.300000X0.237500X-0.300000X-0.237500X0.300000X-0.237500X0*%
%ADD14RoundRect,0.237500X-0.237500X0.300000X-0.237500X-0.300000X0.237500X-0.300000X0.237500X0.300000X0*%
%ADD15RoundRect,0.237500X0.237500X-0.300000X0.237500X0.300000X-0.237500X0.300000X-0.237500X-0.300000X0*%
%ADD16RoundRect,0.155000X0.212500X0.155000X-0.212500X0.155000X-0.212500X-0.155000X0.212500X-0.155000X0*%
%ADD17R,1.168400X0.177800*%
%ADD18RoundRect,0.250000X0.475000X-0.337500X0.475000X0.337500X-0.475000X0.337500X-0.475000X-0.337500X0*%
G04 APERTURE END LIST*
D10*
%TO.C,C13*%
X163068000Y-92929900D03*
X163068000Y-94064900D03*
%TD*%
D11*
%TO.C,C16*%
X163245800Y-89137300D03*
X163245800Y-88002300D03*
%TD*%
D12*
%TO.C,C1*%
X149682200Y-95863500D03*
X149682200Y-97938500D03*
%TD*%
%TO.C,C14*%
X149631400Y-91189900D03*
X149631400Y-93264900D03*
%TD*%
D13*
%TO.C,C5*%
X152397800Y-80441800D03*
X150672800Y-80441800D03*
%TD*%
D12*
%TO.C,C4*%
X149021800Y-87075100D03*
X149021800Y-89150100D03*
%TD*%
D11*
%TO.C,C18*%
X164261800Y-89162700D03*
X164261800Y-88027700D03*
%TD*%
D14*
%TO.C,C15*%
X164338000Y-92609500D03*
X164338000Y-94334500D03*
%TD*%
D15*
%TO.C,C10*%
X147650200Y-83615700D03*
X147650200Y-81890700D03*
%TD*%
D14*
%TO.C,C3*%
X151536400Y-95835300D03*
X151536400Y-97560300D03*
%TD*%
%TO.C,C7*%
X150850600Y-87300900D03*
X150850600Y-89025900D03*
%TD*%
D16*
%TO.C,C2*%
X151958700Y-83489800D03*
X150823700Y-83489800D03*
%TD*%
D17*
%TO.C,U1*%
X154290613Y-83528528D03*
X154290613Y-84028528D03*
X154290613Y-84528528D03*
X154290613Y-85028528D03*
X154290613Y-85528528D03*
X154290613Y-86028528D03*
X154290613Y-86528528D03*
X154290613Y-87028528D03*
X154290613Y-87528528D03*
X154290613Y-88028528D03*
X154290613Y-88528528D03*
X154290613Y-89028528D03*
X154290613Y-89528528D03*
X154290613Y-90028528D03*
X154290613Y-90528528D03*
X154290613Y-91028528D03*
X154290613Y-91528528D03*
X154290613Y-92028528D03*
X154290613Y-92528528D03*
X154290613Y-93028528D03*
X154290613Y-93528528D03*
X154290613Y-94028528D03*
X154290613Y-94528528D03*
X154290613Y-95028528D03*
X161529613Y-95028528D03*
X161529613Y-94528528D03*
X161529613Y-94028528D03*
X161529613Y-93528528D03*
X161529613Y-93028528D03*
X161529613Y-92528528D03*
X161529613Y-92028528D03*
X161529613Y-91528528D03*
X161529613Y-91028528D03*
X161529613Y-90528528D03*
X161529613Y-90028528D03*
X161529613Y-89528528D03*
X161529613Y-89028528D03*
X161529613Y-88528528D03*
X161529613Y-88028528D03*
X161529613Y-87528528D03*
X161529613Y-87028528D03*
X161529613Y-86528528D03*
X161529613Y-86028528D03*
X161529613Y-85528528D03*
X161529613Y-85028528D03*
X161529613Y-84528528D03*
X161529613Y-84028528D03*
X161529613Y-83528528D03*
%TD*%
D12*
%TO.C,C17*%
X166039800Y-92434500D03*
X166039800Y-94509500D03*
%TD*%
D16*
%TO.C,C8*%
X152016500Y-82169000D03*
X150881500Y-82169000D03*
%TD*%
D10*
%TO.C,C11*%
X152755600Y-90516900D03*
X152755600Y-91651900D03*
%TD*%
%TO.C,C9*%
X152146000Y-87530900D03*
X152146000Y-88665900D03*
%TD*%
%TO.C,C6*%
X152730200Y-95698500D03*
X152730200Y-96833500D03*
%TD*%
D14*
%TO.C,C12*%
X151612600Y-90755300D03*
X151612600Y-92480300D03*
%TD*%
D18*
%TO.C,C19*%
X165760400Y-89556500D03*
X165760400Y-87481500D03*
%TD*%
M02*
