%TF.GenerationSoftware,KiCad,Pcbnew,(5.99.0-10520-g1b9a8564af)*%
%TF.CreationDate,2021-07-21T11:30:59-07:00*%
%TF.ProjectId,cfc_emulator,6366635f-656d-4756-9c61-746f722e6b69,rev?*%
%TF.SameCoordinates,Original*%
%TF.FileFunction,Soldermask,Bot*%
%TF.FilePolarity,Negative*%
%FSLAX46Y46*%
G04 Gerber Fmt 4.6, Leading zero omitted, Abs format (unit mm)*
G04 Created by KiCad (PCBNEW (5.99.0-10520-g1b9a8564af)) date 2021-07-21 11:30:59*
%MOMM*%
%LPD*%
G01*
G04 APERTURE LIST*
%ADD10R,1.700000X1.700000*%
%ADD11O,1.700000X1.700000*%
%ADD12C,2.400000*%
%ADD13O,2.413000X1.270000*%
G04 APERTURE END LIST*
D10*
%TO.C,J3*%
X165201600Y-71443600D03*
D11*
X167741600Y-71443600D03*
X170281600Y-71443600D03*
X172821600Y-71443600D03*
X175361600Y-71443600D03*
X177901600Y-71443600D03*
X165201600Y-73983600D03*
X167741600Y-73983600D03*
X170281600Y-73983600D03*
X172821600Y-73983600D03*
X175361600Y-73983600D03*
X177901600Y-73983600D03*
%TD*%
D10*
%TO.C,J2*%
X142341600Y-71443600D03*
D11*
X144881600Y-71443600D03*
X147421600Y-71443600D03*
X149961600Y-71443600D03*
X152501600Y-71443600D03*
X155041600Y-71443600D03*
X142341600Y-73983600D03*
X144881600Y-73983600D03*
X147421600Y-73983600D03*
X149961600Y-73983600D03*
X152501600Y-73983600D03*
X155041600Y-73983600D03*
%TD*%
D12*
%TO.C,J1*%
X170459400Y-66649600D03*
X150139400Y-66649600D03*
X150139400Y-112369600D03*
X170459400Y-112369600D03*
D13*
X137058400Y-76174600D03*
X140233400Y-77444600D03*
X137058400Y-78714600D03*
X140233400Y-79984600D03*
X137058400Y-81254600D03*
X140233400Y-82524600D03*
X137058400Y-83794600D03*
X140233400Y-85064600D03*
X137058400Y-86334600D03*
X140233400Y-87604600D03*
X137058400Y-88874600D03*
X140233400Y-90144600D03*
X137058400Y-91414600D03*
X140233400Y-92684600D03*
X137058400Y-93954600D03*
X140233400Y-95224600D03*
X137058400Y-96494600D03*
X140233400Y-97764600D03*
X137058400Y-99034600D03*
X140233400Y-100304600D03*
X137058400Y-101574600D03*
X140233400Y-102844600D03*
X180365400Y-102844600D03*
X183540400Y-101574600D03*
X180365400Y-100304600D03*
X183540400Y-99034600D03*
X180365400Y-97764600D03*
X183540400Y-96494600D03*
X180365400Y-95224600D03*
X183540400Y-93954600D03*
X180365400Y-92684600D03*
X183540400Y-91414600D03*
X180365400Y-90144600D03*
X183540400Y-88874600D03*
X180365400Y-87604600D03*
X183540400Y-86334600D03*
X180365400Y-85064600D03*
X183540400Y-83794600D03*
X180365400Y-82524600D03*
X183540400Y-81254600D03*
X180365400Y-79984600D03*
X183540400Y-78714600D03*
X180365400Y-77444600D03*
X183540400Y-76174600D03*
%TD*%
M02*
